<?xml version="1.0" standalone="no"?>
<svg xmlns="http://www.w3.org/2000/svg" viewBox="0 0 70 65" width="70" height="65"><g fill="#000000" color="#000000" transform="translate(16.659 0) scale(0.3999961) "><svg width="90.527" height="100.001" x="0.0" y="0.0" viewBox="0 0 90.527 100.001"><rect x="16.842" y="56.843" fill="currentColor" width="37.895" height="6.315"></rect><rect x="16.842" y="37.895" fill="currentColor" width="37.895" height="6.315"></rect><rect x="16.842" y="18.948" fill="currentColor" width="37.895" height="6.315"></rect><path fill="currentColor" d="M86.316,14.738H71.58V4.21c0-2.632-1.578-4.21-4.211-4.21H4.21C1.578,0,0,1.578,0,4.21v77.895  c0,2.634,1.578,4.213,4.21,4.213h14.737v9.474c0,2.632,1.579,4.21,4.211,4.21h63.158c2.633,0,4.211-1.578,4.211-4.21V18.948  C90.527,16.315,88.949,14.738,86.316,14.738z M6.316,77.896V8.421c0-1.316,0.789-2.106,2.105-2.106h54.737  c1.316,0,2.105,0.79,2.105,2.106v69.475c0,1.315-0.789,2.104-2.105,2.104H8.421C7.105,80,6.316,79.211,6.316,77.896z M84.21,91.579  c0,1.316-0.789,2.104-2.104,2.104H28.421c-1.316,0-2.105-0.787-2.105-2.104v-5.264h41.053c2.633,0,4.211-1.578,4.211-4.211V22.106  h10.526c1.315,0,2.104,0.788,2.104,2.104V91.579z"></path></svg></g><path fill="#000000" fill-rule="nonzero" d="M1.25 11.04Q1.99 11.04 2.40 11.50Q2.81 11.95 2.81 12.61Q2.81 13.27 2.59 13.68L2.59 13.68Q3.65 14.54 5.03 14.54Q6.41 14.54 7.10 13.91Q7.80 13.27 7.80 12.17Q7.80 11.06 7.03 10.27Q6.26 9.48 5.17 8.95Q4.08 8.42 3 7.84Q1.92 7.25 1.15 6.26Q0.38 5.28 0.38 3.94L0.38 3.94Q0.38 2.09 1.61 1.04Q2.83 0 4.75 0Q6.67 0 8.08 0.91Q9.48 1.82 9.48 3.37Q9.48 4.92 8.23 4.92L8.23 4.92Q7.49 4.92 7.08 4.46Q6.67 4.01 6.67 3.29Q6.67 2.57 6.96 2.18L6.96 2.18Q6.12 1.42 4.90 1.42Q3.67 1.42 3.06 2.04Q2.45 2.66 2.45 3.60Q2.45 4.54 3 5.20Q3.55 5.86 4.37 6.28Q5.18 6.70 6.14 7.24Q7.10 7.78 7.92 8.30Q8.74 8.83 9.29 9.73Q9.84 10.63 9.84 11.78L9.84 11.78Q9.84 13.68 8.53 14.88Q7.22 16.08 5.18 16.08Q3.14 16.08 1.57 15.13Q0 14.18 0 12.48L0 12.48Q0 11.04 1.25 11.04L1.25 11.04ZM11.71 1.70L10.82 1.63Q10.78 1.25 10.78 0.97Q10.78 0.70 10.85 0.29L10.85 0.29Q11.69 0.31 12.98 0.31Q14.28 0.31 15.10 0.29L15.10 0.29Q15.17 0.65 15.17 1.01Q15.17 1.37 15.12 1.63L15.12 1.63L14.28 1.70Q15.41 9.31 16.99 13.63L16.99 13.63L17.14 13.63Q17.88 11.81 18.56 8.58Q19.25 5.35 19.61 2.52L19.61 2.52Q20.33 2.23 20.80 2.23Q21.26 2.23 21.65 2.28L21.65 2.28Q22.73 9.58 24.29 13.63L24.29 13.63L24.43 13.63Q25.25 11.35 25.97 7.86Q26.69 4.37 26.98 1.70L26.98 1.70L26.11 1.63Q26.06 1.44 26.06 1.07Q26.06 0.70 26.14 0.29L26.14 0.29Q27 0.31 28.22 0.31Q29.45 0.31 30.19 0.29L30.19 0.29Q30.26 0.65 30.26 0.90Q30.26 1.15 30.22 1.63L30.22 1.63L29.38 1.70Q28.68 3.89 27.36 8.58Q26.04 13.27 25.42 15.72L25.42 15.72Q24.55 15.94 23.84 15.94Q23.14 15.94 22.92 15.91L22.92 15.91Q22.58 14.76 21.78 11.57Q20.98 8.38 20.59 6.91L20.59 6.91L20.47 6.91Q18.86 12.74 18.12 15.72L18.12 15.72Q17.26 15.94 16.55 15.94Q15.84 15.94 15.62 15.91L15.62 15.91Q15.53 15.60 14.05 9.83Q12.58 4.06 11.71 1.70L11.71 1.70ZM33.26 1.75Q33.19 1.46 33.19 1.01Q33.19 0.55 33.22 0.41L33.22 0.41Q35.33 0.14 36.36 0.14Q37.39 0.14 38.11 0.38L38.11 0.38Q38.69 4.90 42.12 14.33L42.12 14.33L43.01 14.40Q43.06 14.93 43.06 15.13Q43.06 15.34 42.98 15.74L42.98 15.74Q42.31 15.72 40.90 15.72Q39.48 15.72 38.93 15.74L38.93 15.74Q38.86 15.38 38.86 15.06Q38.86 14.74 38.90 14.40L38.90 14.40L39.74 14.33Q39.62 13.75 39.36 12.66Q39.10 11.57 39.07 11.45L39.07 11.45Q37.70 11.38 36.11 11.38Q34.51 11.38 33.12 11.47L33.12 11.47L32.45 14.33L33.36 14.40Q33.41 14.93 33.41 15.13Q33.41 15.34 33.34 15.74L33.34 15.74Q32.76 15.72 31.45 15.72Q30.14 15.72 29.62 15.74L29.62 15.74Q29.54 15.38 29.54 15.06Q29.54 14.74 29.59 14.40L29.59 14.40L30.43 14.33Q33.31 6.43 34.22 1.82L34.22 1.82L33.26 1.75ZM33.55 9.79L33.55 9.79Q34.37 9.82 36 9.82Q37.63 9.82 38.64 9.74L38.64 9.74Q37.51 5.47 36.26 1.85L36.26 1.85L36.12 1.85Q34.70 5.28 33.55 9.79ZM53.66 4.92Q52.92 4.92 52.51 4.46Q52.10 4.01 52.10 3.28Q52.10 2.54 52.42 2.14L52.42 2.14Q51.65 1.42 50.30 1.42L50.30 1.42Q48.34 1.42 47.33 3.06Q46.32 4.70 46.32 7.90L46.32 7.90Q46.32 14.30 50.30 14.30L50.30 14.30Q51.26 14.30 52.26 13.84Q53.26 13.37 53.95 12.60L53.95 12.60Q54.70 13.20 54.91 14.50L54.91 14.50Q52.78 16.08 50.30 16.08L50.30 16.08Q47.16 16.08 45.76 14.14Q44.35 12.19 44.35 8.09L44.35 8.09Q44.35 0 50.30 0L50.30 0Q52.10 0 53.51 0.95Q54.91 1.90 54.91 3.41Q54.91 4.92 53.66 4.92L53.66 4.92ZM56.86 1.70L55.97 1.63Q55.92 1.25 55.92 0.97Q55.92 0.70 55.99 0.29L55.99 0.29Q56.83 0.31 58.09 0.31Q59.35 0.31 60.26 0.29L60.26 0.29Q60.34 0.65 60.34 0.92Q60.34 1.20 60.29 1.63L60.29 1.63L59.45 1.70Q59.95 4.44 60.91 7.84Q61.87 11.23 62.86 13.63L62.86 13.63L63 13.63Q63.86 11.52 64.86 7.85Q65.86 4.18 66.26 1.70L66.26 1.70L65.38 1.63Q65.33 1.44 65.33 1.07Q65.33 0.70 65.40 0.29L65.40 0.29Q66.26 0.31 67.49 0.31Q68.71 0.31 69.46 0.29L69.46 0.29Q69.53 0.65 69.53 0.90Q69.53 1.15 69.48 1.63L69.48 1.63L68.64 1.70Q67.56 4.58 66.04 9.10Q64.51 13.61 63.98 15.72L63.98 15.72Q63.12 15.94 62.41 15.94Q61.70 15.94 61.49 15.91L61.49 15.91Q59.02 7.06 56.86 1.70L56.86 1.70Z" transform="translate(0, 48)"></path></svg>